<svg id="svg" version="1.1" width="400" height="400" viewBox="0 0 400 400" xmlns="http://www.w3.org/2000/svg" xmlns:xlink="http://www.w3.org/1999/xlink" ><g id="svgg"><path id="path0" d="M191.318 95.884 C 188.853 102.218,184.869 112.440,182.464 118.600 C 175.726 135.863,175.591 136.209,170.461 149.400 C 167.809 156.220,165.189 162.937,164.639 164.327 C 164.089 165.717,163.800 166.797,163.997 166.727 C 165.094 166.339,193.773 142.426,194.252 141.500 C 194.811 140.419,196.244 93.373,195.919 86.779 L 195.800 84.369 191.318 95.884 M203.609 88.033 C 203.649 104.734,204.815 140.470,205.354 141.512 C 205.680 142.142,209.042 145.165,212.824 148.229 C 216.607 151.293,221.434 155.248,223.551 157.019 C 232.056 164.131,236.149 167.366,235.922 166.798 C 235.456 165.631,226.286 142.106,223.995 136.200 C 222.715 132.900,219.663 125.070,217.212 118.800 C 214.761 112.530,210.769 102.270,208.340 96.000 C 205.912 89.730,203.852 84.525,203.763 84.433 C 203.673 84.342,203.604 85.962,203.609 88.033 M159.882 176.500 C 159.387 177.714,152.020 196.583,148.990 204.400 C 147.156 209.130,143.294 219.030,140.406 226.400 C 137.518 233.770,133.171 244.930,130.745 251.200 C 128.320 257.470,125.999 263.410,125.588 264.400 C 125.177 265.390,122.958 271.060,120.657 277.000 C 117.286 285.703,113.119 296.375,111.683 299.983 C 111.502 300.438,121.696 291.751,124.806 288.800 C 125.154 288.470,126.600 287.183,128.019 285.941 C 138.240 276.994,144.864 271.176,151.795 265.058 L 159.790 258.000 199.795 258.003 L 239.800 258.006 249.800 266.840 C 255.300 271.699,263.580 278.967,268.200 282.990 C 272.820 287.013,279.120 292.560,282.200 295.317 C 285.280 298.074,287.841 300.289,287.892 300.239 C 287.943 300.190,286.893 297.371,285.560 293.975 C 282.888 287.171,275.042 267.060,268.402 250.000 C 261.349 231.876,250.907 205.094,247.818 197.200 C 246.225 193.130,243.710 186.695,242.228 182.900 L 239.534 176.000 199.810 176.000 C 168.406 176.000,160.043 176.105,159.882 176.500 M212.000 190.997 C 212.000 191.105,210.020 196.147,207.600 202.200 C 205.180 208.253,203.200 213.264,203.200 213.334 C 203.200 213.405,208.072 211.513,214.026 209.131 C 219.981 206.749,225.111 204.800,225.426 204.800 C 225.912 204.800,226.000 206.672,226.000 217.000 C 226.000 226.500,225.889 229.197,225.500 229.187 C 225.225 229.181,220.140 227.218,214.200 224.826 C 208.260 222.434,203.353 220.522,203.295 220.577 C 203.237 220.632,205.172 225.603,207.595 231.623 C 210.018 237.643,212.000 242.706,212.000 242.875 C 212.000 243.262,187.689 243.272,187.458 242.885 C 187.365 242.728,189.248 237.751,191.644 231.825 C 194.040 225.898,196.000 220.919,196.000 220.760 C 196.000 220.601,191.108 222.435,185.130 224.835 C 179.151 227.236,174.111 229.200,173.930 229.200 C 173.748 229.200,173.600 223.710,173.600 217.000 C 173.600 208.692,173.735 204.800,174.023 204.800 C 174.256 204.800,179.216 206.710,185.045 209.044 C 190.875 211.379,195.732 213.201,195.839 213.095 C 195.945 212.988,194.067 208.027,191.664 202.069 C 189.262 196.112,187.395 191.139,187.515 191.019 C 187.786 190.747,212.000 190.725,212.000 190.997 " stroke="none" fill="#05050b" fill-rule="evenodd"></path><path id="path1" d="M0.000 200.000 L 0.000 400.000 200.000 400.000 L 400.000 400.000 400.000 200.000 L 400.000 0.000 200.000 0.000 L 0.000 0.000 0.000 200.000 M195.809 109.631 C 195.130 139.979,195.097 140.736,194.375 141.891 C 194.076 142.371,192.216 144.077,190.243 145.682 C 188.271 147.287,185.812 149.320,184.780 150.200 C 183.747 151.080,181.223 153.150,179.171 154.800 C 177.119 156.450,172.763 160.023,169.492 162.739 C 166.221 165.455,163.467 167.600,163.372 167.506 C 163.277 167.411,164.116 165.008,165.236 162.167 C 166.356 159.325,169.794 150.520,172.875 142.600 C 180.739 122.389,186.862 106.658,191.401 95.000 C 193.542 89.500,195.458 84.570,195.658 84.045 C 196.377 82.158,196.387 83.816,195.809 109.631 M206.188 89.800 C 207.445 93.100,209.709 98.950,211.219 102.800 C 223.632 134.443,236.362 167.371,236.232 167.501 C 236.145 167.588,234.380 166.251,232.310 164.530 C 230.239 162.808,226.768 159.960,224.596 158.200 C 222.425 156.440,219.557 154.097,218.224 152.994 C 216.891 151.890,213.730 149.304,211.200 147.245 C 203.698 141.142,204.552 144.617,204.011 118.000 C 203.785 106.890,203.491 94.470,203.358 90.400 C 203.074 81.695,203.099 81.690,206.188 89.800 M239.442 175.906 C 239.789 176.137,246.196 192.183,253.214 210.400 C 255.226 215.625,271.730 257.927,274.203 264.200 C 275.157 266.620,278.669 275.620,282.008 284.200 C 285.346 292.780,288.186 300.069,288.319 300.397 C 288.734 301.425,287.055 299.987,260.537 276.600 C 256.795 273.300,253.298 270.234,252.767 269.787 C 252.235 269.340,249.460 266.904,246.600 264.374 C 243.740 261.843,240.881 259.374,240.246 258.886 L 239.092 258.000 199.708 258.000 L 160.323 258.000 157.661 260.300 C 156.198 261.565,154.910 262.692,154.800 262.805 C 154.690 262.918,152.530 264.807,150.000 267.004 C 147.470 269.200,141.530 274.415,136.800 278.594 C 120.801 292.728,111.479 300.812,111.339 300.673 C 111.263 300.596,112.020 298.479,113.021 295.967 C 114.022 293.455,117.427 284.740,120.588 276.600 C 132.171 246.777,136.063 236.790,146.078 211.200 C 147.413 207.790,149.724 201.850,151.214 198.000 C 152.705 194.150,155.130 187.940,156.604 184.200 C 158.078 180.460,159.441 176.995,159.632 176.500 L 159.980 175.600 199.490 175.606 C 221.221 175.609,239.199 175.744,239.442 175.906 M187.729 191.700 C 189.762 196.428,196.359 213.374,196.222 213.512 C 196.119 213.615,191.076 211.713,185.017 209.286 L 174.000 204.872 174.000 216.836 C 174.000 223.416,174.141 228.800,174.312 228.800 C 174.484 228.800,179.524 226.836,185.512 224.435 C 191.501 222.034,196.400 220.201,196.400 220.362 C 196.400 220.522,194.420 225.571,192.000 231.582 C 189.580 237.593,187.600 242.576,187.600 242.655 C 187.600 242.735,193.000 242.800,199.600 242.800 C 206.200 242.800,211.600 242.656,211.600 242.480 C 211.600 242.304,209.644 237.309,207.253 231.380 C 204.696 225.038,203.090 220.555,203.353 220.490 C 203.599 220.429,208.660 222.336,214.600 224.726 L 225.400 229.073 225.506 217.076 C 225.564 210.477,225.558 205.025,225.492 204.959 C 225.427 204.893,220.447 206.817,214.426 209.233 C 208.406 211.650,203.343 213.576,203.176 213.513 C 203.009 213.451,204.836 208.470,207.236 202.444 C 209.636 196.418,211.600 191.423,211.600 191.344 C 211.600 191.265,206.181 191.200,199.557 191.200 C 190.075 191.200,187.560 191.306,187.729 191.700 M166.857 276.694 C 168.036 277.736,172.162 281.471,176.026 284.994 C 201.942 308.622,199.635 306.755,201.145 305.316 C 202.630 303.900,204.139 302.530,209.271 297.941 C 211.542 295.910,213.593 294.057,213.829 293.824 C 214.064 293.591,215.575 292.230,217.185 290.800 C 218.796 289.370,220.313 288.012,220.557 287.783 C 235.645 273.576,235.937 273.419,239.975 277.326 C 241.199 278.510,244.187 281.261,246.615 283.439 C 259.896 295.355,263.238 298.371,265.604 300.575 C 267.965 302.774,271.735 306.186,276.900 310.798 C 278.956 312.635,279.384 314.249,278.232 315.824 C 277.442 316.904,123.374 317.268,121.734 316.194 C 119.236 314.557,120.072 313.211,128.078 305.976 C 135.791 299.007,146.895 288.932,153.200 283.183 C 164.045 273.294,163.372 273.614,166.857 276.694 " stroke="none" fill="#fbfbfb" fill-rule="evenodd"></path><path id="path2" d="M161.927 275.700 C 160.948 276.624,152.602 284.173,149.386 287.043 C 140.171 295.266,132.906 301.809,132.158 302.557 C 131.696 303.021,129.716 304.839,127.758 306.599 C 120.305 313.299,119.896 313.896,121.600 315.600 C 122.602 316.602,277.090 316.897,277.919 315.898 C 279.737 313.707,279.627 313.562,268.800 303.823 C 265.390 300.756,262.510 298.146,262.400 298.023 C 262.290 297.901,260.400 296.180,258.200 294.201 C 256.000 292.221,254.110 290.506,254.000 290.390 C 253.661 290.033,242.040 279.525,239.524 277.300 C 236.292 274.442,235.401 274.468,232.171 277.511 C 230.836 278.770,229.027 280.430,228.151 281.200 C 225.818 283.253,214.929 293.076,214.077 293.897 C 213.189 294.752,206.819 300.556,203.060 303.936 C 199.590 307.056,200.063 307.157,194.513 302.100 C 191.918 299.735,188.716 296.825,187.397 295.634 C 186.079 294.443,182.300 291.012,179.000 288.009 C 163.973 274.334,163.634 274.089,161.927 275.700 " stroke="none" fill="#ea3d2e" fill-rule="evenodd"></path><path id="path3" d="M196.137 87.800 C 196.139 89.560,196.209 90.230,196.293 89.289 C 196.378 88.349,196.377 86.909,196.291 86.089 C 196.205 85.270,196.136 86.040,196.137 87.800 M203.328 88.400 C 203.328 89.830,203.401 90.415,203.489 89.700 C 203.578 88.985,203.578 87.815,203.489 87.100 C 203.401 86.385,203.328 86.970,203.328 88.400 M203.737 105.800 C 203.739 107.560,203.809 108.230,203.893 107.289 C 203.978 106.349,203.977 104.909,203.891 104.089 C 203.805 103.270,203.736 104.040,203.737 105.800 M195.731 105.800 C 195.733 107.340,195.805 107.921,195.892 107.091 C 195.979 106.261,195.977 105.001,195.889 104.291 C 195.800 103.581,195.729 104.260,195.731 105.800 M195.328 124.000 C 195.328 125.430,195.401 126.015,195.489 125.300 C 195.578 124.585,195.578 123.415,195.489 122.700 C 195.401 121.985,195.328 122.570,195.328 124.000 M204.124 123.800 C 204.126 125.120,204.201 125.612,204.290 124.893 C 204.379 124.174,204.377 123.094,204.286 122.493 C 204.195 121.892,204.122 122.480,204.124 123.800 M159.862 175.900 C 159.694 176.172,187.944 176.169,225.200 175.894 C 233.010 175.837,221.546 175.747,199.724 175.695 C 177.902 175.643,159.964 175.735,159.862 175.900 M173.685 216.900 C 173.638 223.665,173.735 229.200,173.900 229.200 C 174.065 229.201,174.154 225.556,174.098 221.100 C 173.907 205.964,173.770 204.570,173.685 216.900 M232.400 277.000 C 231.428 277.990,230.723 278.800,230.833 278.800 C 230.943 278.800,231.828 277.990,232.800 277.000 C 233.772 276.010,234.477 275.200,234.367 275.200 C 234.257 275.200,233.372 276.010,232.400 277.000 M237.239 275.300 C 237.335 275.355,238.220 276.120,239.206 277.000 L 241.000 278.600 239.419 276.900 C 238.549 275.965,237.664 275.200,237.452 275.200 C 237.240 275.200,237.144 275.245,237.239 275.300 M157.510 279.222 C 155.370 281.190,153.750 282.798,153.910 282.795 C 154.069 282.793,155.910 281.181,158.000 279.215 C 160.090 277.248,161.710 275.640,161.600 275.641 C 161.490 275.642,159.649 277.253,157.510 279.222 M165.717 275.852 C 165.866 276.101,167.466 277.631,169.271 279.252 C 171.077 280.874,172.432 281.996,172.283 281.748 C 172.134 281.499,170.534 279.969,168.729 278.348 C 166.923 276.726,165.568 275.604,165.717 275.852 M228.575 280.500 L 227.400 281.800 228.798 280.600 C 229.567 279.940,230.272 279.355,230.365 279.300 C 230.457 279.245,230.357 279.200,230.142 279.200 C 229.926 279.200,229.221 279.785,228.575 280.500 M243.983 281.300 C 244.964 282.345,245.819 283.200,245.883 283.200 C 246.184 283.200,245.866 282.841,244.100 281.183 L 242.200 279.400 243.983 281.300 M174.783 284.100 C 176.441 285.866,176.800 286.184,176.800 285.883 C 176.800 285.819,175.945 284.964,174.900 283.983 L 173.000 282.200 174.783 284.100 M151.183 285.083 L 149.400 286.966 151.400 285.215 C 152.500 284.252,153.475 283.404,153.567 283.332 C 153.658 283.259,153.561 283.200,153.350 283.200 C 153.139 283.200,152.164 284.047,151.183 285.083 M223.978 284.700 L 222.600 286.200 224.100 284.822 C 224.925 284.063,225.600 283.388,225.600 283.322 C 225.600 283.016,225.262 283.304,223.978 284.700 M248.000 285.000 C 248.746 285.770,249.447 286.400,249.557 286.400 C 249.667 286.400,249.146 285.770,248.400 285.000 C 247.654 284.230,246.953 283.600,246.843 283.600 C 246.733 283.600,247.254 284.230,248.000 285.000 M251.800 288.400 C 252.659 289.280,253.452 290.000,253.562 290.000 C 253.672 290.000,253.059 289.280,252.200 288.400 C 251.341 287.520,250.548 286.800,250.438 286.800 C 250.328 286.800,250.941 287.520,251.800 288.400 M146.981 288.900 L 145.400 290.600 147.194 289.000 C 148.180 288.120,149.065 287.355,149.161 287.300 C 149.256 287.245,149.160 287.200,148.948 287.200 C 148.736 287.200,147.851 287.965,146.981 288.900 M178.400 287.325 C 178.400 287.394,178.985 287.979,179.700 288.625 L 181.000 289.800 179.825 288.500 C 178.730 287.288,178.400 287.016,178.400 287.325 M142.800 292.600 C 141.828 293.590,141.123 294.400,141.233 294.400 C 141.343 294.400,142.228 293.590,143.200 292.600 C 144.172 291.610,144.877 290.800,144.767 290.800 C 144.657 290.800,143.772 291.610,142.800 292.600 M182.800 291.308 C 182.800 291.415,184.366 292.919,186.279 294.651 C 188.192 296.383,189.635 297.596,189.485 297.348 C 189.139 296.775,182.800 291.048,182.800 291.308 M256.600 292.800 C 257.459 293.680,258.252 294.400,258.362 294.400 C 258.472 294.400,257.859 293.680,257.000 292.800 C 256.141 291.920,255.348 291.200,255.238 291.200 C 255.128 291.200,255.741 291.920,256.600 292.800 M260.200 296.000 C 261.059 296.880,261.852 297.600,261.962 297.600 C 262.072 297.600,261.459 296.880,260.600 296.000 C 259.741 295.120,258.948 294.400,258.838 294.400 C 258.728 294.400,259.341 295.120,260.200 296.000 M138.581 296.500 L 137.000 298.200 138.700 296.619 C 140.281 295.148,140.584 294.800,140.281 294.800 C 140.216 294.800,139.451 295.565,138.581 296.500 M211.178 296.300 L 209.800 297.800 211.300 296.422 C 212.125 295.663,212.800 294.988,212.800 294.922 C 212.800 294.616,212.462 294.904,211.178 296.300 M191.983 299.700 C 193.641 301.466,194.000 301.784,194.000 301.483 C 194.000 301.419,193.145 300.564,192.100 299.583 L 190.200 297.800 191.983 299.700 M206.800 300.082 C 205.590 301.210,204.803 302.058,205.052 301.967 C 205.898 301.654,209.725 297.941,209.124 298.015 C 209.056 298.024,208.010 298.954,206.800 300.082 M262.433 298.127 C 262.525 298.197,263.590 299.135,264.800 300.212 L 267.000 302.169 265.015 300.084 C 263.923 298.938,262.858 298.000,262.648 298.000 C 262.438 298.000,262.342 298.057,262.433 298.127 M130.378 303.900 L 129.000 305.400 130.500 304.022 C 131.896 302.738,132.184 302.400,131.878 302.400 C 131.812 302.400,131.137 303.075,130.378 303.900 M196.600 304.000 C 197.459 304.880,198.252 305.600,198.362 305.600 C 198.472 305.600,197.859 304.880,197.000 304.000 C 196.141 303.120,195.348 302.400,195.238 302.400 C 195.128 302.400,195.741 303.120,196.600 304.000 M202.862 303.640 C 202.126 304.309,201.598 304.931,201.689 305.022 C 201.780 305.114,202.463 304.561,203.206 303.794 C 204.866 302.081,204.672 301.994,202.862 303.640 M269.200 304.147 C 269.970 304.982,270.960 305.855,271.400 306.087 C 271.840 306.319,272.110 306.425,272.000 306.322 C 269.442 303.943,267.928 302.767,269.200 304.147 M125.583 308.283 L 123.800 310.166 125.800 308.415 C 126.900 307.452,127.875 306.604,127.967 306.532 C 128.058 306.459,127.961 306.400,127.750 306.400 C 127.539 306.400,126.564 307.247,125.583 308.283 M272.400 306.925 C 272.400 306.994,272.985 307.579,273.700 308.225 L 275.000 309.400 273.825 308.100 C 272.730 306.888,272.400 306.616,272.400 306.925 M121.804 311.596 C 121.174 312.254,120.735 312.856,120.829 312.934 C 120.923 313.012,121.513 312.474,122.139 311.738 C 123.554 310.077,123.345 309.988,121.804 311.596 M277.429 311.638 C 278.073 312.429,278.681 313.008,278.779 312.925 C 278.878 312.842,278.351 312.195,277.609 311.487 L 276.258 310.200 277.429 311.638 M120.800 315.101 C 120.800 316.870,117.669 316.806,199.789 316.702 L 277.000 316.604 199.468 316.402 C 123.302 316.204,121.925 316.186,121.368 315.424 C 121.055 314.996,120.800 314.851,120.800 315.101 " stroke="none" fill="#9a9a9b" fill-rule="evenodd"></path><path id="path4" d="M203.728 100.400 C 203.728 101.830,203.801 102.415,203.889 101.700 C 203.978 100.985,203.978 99.815,203.889 99.100 C 203.801 98.385,203.728 98.970,203.728 100.400 M195.728 100.800 C 195.728 102.230,195.801 102.815,195.889 102.100 C 195.978 101.385,195.978 100.215,195.889 99.500 C 195.801 98.785,195.728 99.370,195.728 100.800 M195.334 118.800 C 195.334 120.450,195.405 121.125,195.491 120.300 C 195.578 119.475,195.578 118.125,195.491 117.300 C 195.405 116.475,195.334 117.150,195.334 118.800 M204.134 118.800 C 204.134 120.450,204.205 121.125,204.291 120.300 C 204.378 119.475,204.378 118.125,204.291 117.300 C 204.205 116.475,204.134 117.150,204.134 118.800 M194.928 136.400 C 194.928 137.830,195.001 138.415,195.089 137.700 C 195.178 136.985,195.178 135.815,195.089 135.100 C 195.001 134.385,194.928 134.970,194.928 136.400 M204.528 136.800 C 204.528 138.230,204.601 138.815,204.689 138.100 C 204.778 137.385,204.778 136.215,204.689 135.500 C 204.601 134.785,204.528 135.370,204.528 136.800 M187.462 191.100 C 187.360 191.265,192.839 191.400,199.638 191.400 C 206.437 191.400,212.000 191.265,212.000 191.100 C 212.000 190.935,206.521 190.800,199.824 190.800 C 193.127 190.800,187.564 190.935,187.462 191.100 M225.778 216.800 C 225.778 223.510,225.832 226.255,225.899 222.900 C 225.966 219.545,225.966 214.055,225.899 210.700 C 225.832 207.345,225.778 210.090,225.778 216.800 M193.723 243.099 C 196.541 243.168,201.041 243.168,203.723 243.099 C 206.405 243.030,204.100 242.973,198.600 242.973 C 193.100 242.974,190.905 243.030,193.723 243.099 M209.500 243.082 C 209.995 243.178,210.805 243.178,211.300 243.082 C 211.795 242.987,211.390 242.909,210.400 242.909 C 209.410 242.909,209.005 242.987,209.500 243.082 " stroke="none" fill="#737474" fill-rule="evenodd"></path></g></svg>